<svg xmlns="http://www.w3.org/2000/svg" width="38.999" height="39.001" viewBox="0 0 38.999 39.001">
  <g id="monetization-user-monitor-1" transform="translate(0 0.001)">
    <path id="Trazado_36" data-name="Trazado 36" d="M11.469,2.437a1.219,1.219,0,1,1,0-2.437h1.625a1.219,1.219,0,0,1,0,2.437Z" transform="translate(6.406 0.001)" fill="#00265f"/>
    <path id="Trazado_37" data-name="Trazado 37" d="M8.344,12.187a6.094,6.094,0,1,1,6.094-6.094A6.1,6.1,0,0,1,8.344,12.187Zm0-9.75A3.656,3.656,0,1,0,12,6.094,3.66,3.66,0,0,0,8.344,2.437Z" transform="translate(1.406 0.001)" fill="#00265f"/>
    <path id="Trazado_38" data-name="Trazado 38" d="M6.094,34.312a1.213,1.213,0,0,1-1.212-1.1l-1.11-11.09H1.219A1.22,1.22,0,0,1,0,20.906V17.25a9.75,9.75,0,1,1,19.5,0v3.656a1.219,1.219,0,0,1-1.219,1.219H15.728L14.62,33.215a1.217,1.217,0,0,1-1.214,1.1ZM12.3,31.875l1.108-11.09a1.216,1.216,0,0,1,1.214-1.1h2.437V17.25a7.345,7.345,0,0,0-6.094-7.2v5.985a1.219,1.219,0,1,1-2.437,0V10.046a7.345,7.345,0,0,0-6.094,7.2v2.437H4.875a1.213,1.213,0,0,1,1.212,1.1L7.2,31.875Z" transform="translate(0 4.688)" fill="#00265f"/>
    <path id="Trazado_39" data-name="Trazado 39" d="M14.719,26.813a1.219,1.219,0,1,1,0-2.437h1.219V21.938a1.219,1.219,0,0,1,0-2.437H26.358a1.776,1.776,0,0,0,1.766-1.732V4.144a1.768,1.768,0,0,0-1.766-1.706H23.25A1.219,1.219,0,0,1,23.25,0l3.139,0a4.213,4.213,0,0,1,4.173,4.119V17.792a4.239,4.239,0,0,1-4.2,4.145H18.375v2.437h2.437a1.219,1.219,0,1,1,0,2.437Z" transform="translate(8.437)" fill="#41e0e0"/>
    <path id="Trazado_40" data-name="Trazado 40" d="M17.507,15.843a1.22,1.22,0,0,1-1.219-1.219V14.05a4.843,4.843,0,0,1-2.771-1.786,1.221,1.221,0,0,1,.232-1.708,1.206,1.206,0,0,1,.738-.249,1.23,1.23,0,0,1,.972.481,2.4,2.4,0,0,0,1.9.944l.1,0c1.259,0,2.182-.686,2.182-1.3s-.913-1.3-2.134-1.3c-2.52,0-4.569-1.675-4.569-3.734a3.911,3.911,0,0,1,3.351-3.6v-.59a1.218,1.218,0,1,1,2.436,0v.575A4.851,4.851,0,0,1,21.5,3.577a1.219,1.219,0,0,1-1.94,1.475,2.4,2.4,0,0,0-1.9-.944c-.034,0-.068,0-.1,0-1.261,0-2.184.684-2.184,1.3s.912,1.3,2.132,1.3c2.52,0,4.571,1.674,4.571,3.733a3.912,3.912,0,0,1-3.352,3.6v.593A1.218,1.218,0,0,1,17.507,15.843Z" transform="translate(8.087 0.001)" fill="#41e0e0"/>
  </g>
</svg>
