<svg id="single-neutral-actions-information" xmlns="http://www.w3.org/2000/svg" width="36.5" height="36.5" viewBox="0 0 36.5 36.5">
  <path id="Trazado_56" data-name="Trazado 56" d="M7.953,11.406a5.7,5.7,0,1,1,5.7-5.7A5.709,5.709,0,0,1,7.953,11.406Zm0-9.125A3.422,3.422,0,1,0,11.375,5.7,3.425,3.425,0,0,0,7.953,2.281Z" transform="translate(1.172)" fill="#00265f"/>
  <path id="Trazado_57" data-name="Trazado 57" d="M5.7,32.593a1.136,1.136,0,0,1-1.135-1.027L3.53,21.186H1.141A1.141,1.141,0,0,1,0,20.046V16.624a9.127,9.127,0,0,1,17.042-4.54,1.141,1.141,0,0,1-.989,1.708h0a1.144,1.144,0,0,1-.99-.573A6.846,6.846,0,0,0,2.281,16.625v2.28H4.563A1.136,1.136,0,0,1,5.7,19.932l1.039,10.38h4.78l.388-3.89a1.148,1.148,0,0,1,1.128-1.028,1.282,1.282,0,0,1,.131.008,1.142,1.142,0,0,1,1.011,1.247l-.491,4.917a1.138,1.138,0,0,1-1.136,1.028Z" transform="translate(0 3.907)" fill="#00265f"/>
  <path id="Trazado_58" data-name="Trazado 58" d="M20.766,31.031A10.266,10.266,0,1,1,31.031,20.766,10.277,10.277,0,0,1,20.766,31.031Zm0-18.25a7.984,7.984,0,1,0,7.984,7.984A7.993,7.993,0,0,0,20.766,12.781Z" transform="translate(5.469 5.469)" fill="#41e0e0"/>
  <path id="Trazado_59" data-name="Trazado 59" d="M17.641,23.344A1.141,1.141,0,0,1,16.5,22.2V17.641a1.141,1.141,0,0,1,2.281,0V22.2A1.141,1.141,0,0,1,17.641,23.344Z" transform="translate(8.594 8.594)" fill="#41e0e0"/>
  <path id="Trazado_60" data-name="Trazado 60" d="M17.836,16.982a1.711,1.711,0,1,1,1.214-2.918,1.7,1.7,0,0,1,.5,1.211A1.712,1.712,0,0,1,17.836,16.982Z" transform="translate(8.398 7.063)" fill="#41e0e0"/>
</svg>
