<?xml version="1.0" encoding="utf-8"?>
<!-- Generator: Adobe Illustrator 24.2.1, SVG Export Plug-In . SVG Version: 6.00 Build 0)  -->
<svg version="1.1" id="Capa_1" xmlns="http://www.w3.org/2000/svg" xmlns:xlink="http://www.w3.org/1999/xlink" x="0px" y="0px"
	 viewBox="0 0 13.7 13.2" style="enable-background:new 0 0 13.7 13.2;" xml:space="preserve">
<style type="text/css">
	.st0{enable-background:new    ;}
	.st1{fill:#FFFFFF;}
</style>
<g class="st0">
	<path class="st1" d="M12,9.9c0.4,0.4,0.4,1,0,1.4L11.3,12c-0.4,0.4-1,0.4-1.4,0L6.8,8.8L3.6,12c-0.4,0.4-1,0.4-1.4,0l-0.7-0.7
		c-0.4-0.4-0.4-1,0-1.4l3.1-3.1L1.5,3.6c-0.4-0.4-0.4-1,0-1.4l0.7-0.7c0.4-0.4,1-0.4,1.4,0l3.1,3.1l3.1-3.1c0.4-0.4,1-0.4,1.4,0
		L12,2.2c0.4,0.4,0.4,1,0,1.4L8.8,6.8L12,9.9z"/>
</g>
</svg>
