<?xml version="1.0" encoding="utf-8"?>
<!-- Generator: Adobe Illustrator 24.2.1, SVG Export Plug-In . SVG Version: 6.00 Build 0)  -->
<svg version="1.1" id="Capa_1" xmlns="http://www.w3.org/2000/svg" xmlns:xlink="http://www.w3.org/1999/xlink" x="0px" y="0px"
	 viewBox="0 0 67 65" style="enable-background:new 0 0 67 65;" xml:space="preserve">
<style type="text/css">
	.st0{fill:#202E57;}
	.st1{fill:#FFFFFF;}
	.st2{fill:#CD1239;}
	.st3{font-family:'IBMPlexSans-Bold';}
	.st4{font-size:18px;}
</style>
<circle id="Elipse_1" class="st0" cx="35" cy="33" r="32"/>
<path id="telefono" class="st1" d="M30.2,31.2c1.5,2.7,3.7,5,6.5,6.5c0.4,0.1,0.8-0.1,1-0.4l0.8-0.8c0,0,0.6-0.9,2-0.2l3.9,2.3
	c0,0,1.4,0.6,0,1.9l-2.6,2.6c0,0-0.6,1.1-3.4,0.4c-6.5-2.2-11.7-7.3-14-13.8c-0.5-1.2-0.4-2.6,0.4-3.6l2.8-2.9
	c0.4-0.4,1.1-0.4,1.5,0c0.1,0.1,0.2,0.3,0.3,0.4l2.1,4c0.5,0.6,0.4,1.4-0.2,1.9l-0.9,0.8C30.1,30.6,30,31,30.2,31.2z"/>
<circle id="Elipse_2" class="st2" cx="10.5" cy="10.5" r="10.5"/>
<text transform="matrix(1 0 0 1 7.62 16)" class="st1 st3 st4">!</text>
</svg>
