<svg id="multiple-actions-check-1" xmlns="http://www.w3.org/2000/svg" width="39" height="39" viewBox="0 0 39 39">
  <path id="Trazado_27" data-name="Trazado 27" d="M8.344,12.188a6.094,6.094,0,1,1,6.094-6.094A6.1,6.1,0,0,1,8.344,12.188Zm0-9.75A3.656,3.656,0,1,0,12,6.094,3.66,3.66,0,0,0,8.344,2.438Z" transform="translate(1.406)" fill="#00265f"/>
  <path id="Trazado_28" data-name="Trazado 28" d="M6.094,34.311a1.213,1.213,0,0,1-1.212-1.1L3.772,22.124H1.219A1.219,1.219,0,0,1,0,20.905V17.249A9.752,9.752,0,0,1,18.21,12.4a1.219,1.219,0,0,1-1.056,1.825h0A1.222,1.222,0,0,1,16.1,13.61,7.315,7.315,0,0,0,2.438,17.25v2.436H4.875a1.213,1.213,0,0,1,1.212,1.1L7.2,31.874H12.3l.414-4.157a1.227,1.227,0,0,1,1.206-1.1,1.371,1.371,0,0,1,.14.008,1.22,1.22,0,0,1,1.081,1.333l-.525,5.254a1.216,1.216,0,0,1-1.214,1.1Z" transform="translate(0 4.689)" fill="#00265f"/>
  <path id="Trazado_29" data-name="Trazado 29" d="M18.609,10.969a5.484,5.484,0,1,1,5.484-5.484A5.491,5.491,0,0,1,18.609,10.969Zm0-8.531a3.047,3.047,0,1,0,3.047,3.047A3.05,3.05,0,0,0,18.609,2.438Z" transform="translate(8.203)" fill="#00265f"/>
  <path id="Trazado_30" data-name="Trazado 30" d="M25.422,12.1a1.221,1.221,0,0,1-1.055-.609,6.051,6.051,0,0,0-3.7-2.839A6.1,6.1,0,0,0,14.5,10.524a1.219,1.219,0,0,1-.918.416h0a1.22,1.22,0,0,1-.918-2.022A8.548,8.548,0,0,1,19.076,6a8.644,8.644,0,0,1,2.218.293,8.473,8.473,0,0,1,5.18,3.973,1.221,1.221,0,0,1-.445,1.666A1.194,1.194,0,0,1,25.422,12.1Z" transform="translate(7.728 3.749)" fill="#00265f"/>
  <path id="Trazado_31" data-name="Trazado 31" d="M21.469,32.438A10.969,10.969,0,1,1,32.438,21.469,10.981,10.981,0,0,1,21.469,32.438Zm0-19.5A8.531,8.531,0,1,0,30,21.469,8.541,8.541,0,0,0,21.469,12.938Z" transform="translate(6.563 6.563)" fill="#41e0e0"/>
  <path id="Trazado_32" data-name="Trazado 32" d="M18.153,23.975a2.409,2.409,0,0,1-1.463-.491,2.34,2.34,0,0,1-.258-.224l-2.438-2.437A1.218,1.218,0,1,1,15.717,19.1l2.438,2.438,4.722-6.3a1.219,1.219,0,1,1,1.95,1.462L20.106,23a2.444,2.444,0,0,1-1.953.975Z" transform="translate(8.523 9.222)" fill="#00265f"/>
</svg>
