<svg xmlns="http://www.w3.org/2000/svg" width="39.008" height="39" viewBox="0 0 39.008 39">
  <g id="business-contract-approve" transform="translate(-0.001)">
    <path id="Trazado_41" data-name="Trazado 41" d="M12.19,36.569a3.66,3.66,0,0,1-3.657-3.657V22.229l-.218-.184c-2.925-2.461-5.95-5.007-5.875-8.136V7.1L.264,4.361a1.219,1.219,0,1,1,1.91-1.515L4.612,5.921a1.22,1.22,0,0,1,.265.757v7.26c-.037,1.588,1.555,3.26,3.657,5.09V13.735l-.9-.925a1.219,1.219,0,0,1,1.746-1.7l1.156,1.183a1.329,1.329,0,0,1,.184.187l1.536,1.573a.765.765,0,0,0,1.078.015.745.745,0,0,0,.228-.533.758.758,0,0,0-.216-.541L8.87,8.43a1.211,1.211,0,0,1-.346-.852V5.307A8.942,8.942,0,0,0,7.141,1.9,1.219,1.219,0,0,1,9.166.54,11.381,11.381,0,0,1,10.946,5a1.257,1.257,0,0,1,.016.2v1.88l4.123,4.206a3.2,3.2,0,0,1-4.114,4.864v16.76a1.219,1.219,0,0,0,1.219,1.219H24.38a1.219,1.219,0,1,1,0,2.438Z" transform="translate(0)" fill="#00265f"/>
    <path id="Trazado_42" data-name="Trazado 42" d="M22.007,32.4a1.215,1.215,0,0,1-1.013-.54,11.353,11.353,0,0,1-1.778-4.448,1.215,1.215,0,0,1-.018-.2V25.33l-4.128-4.208a3.2,3.2,0,0,1,.055-4.526,3.113,3.113,0,0,1,2.176-.909c.037,0,.075,0,.114,0a3.169,3.169,0,0,1,2.235.965l.753.77V11.774a1.218,1.218,0,0,1,2-.931c2.945,2.488,5.378,4.782,5.31,7.657V25.3l2.175,2.742a1.221,1.221,0,0,1-.2,1.713,1.228,1.228,0,0,1-.757.263h0a1.211,1.211,0,0,1-.956-.462l-2.438-3.075a1.228,1.228,0,0,1-.263-.757V18.47c.031-1.3-1.1-2.7-2.438-3.987v5.934a1.216,1.216,0,0,1-.759,1.13,1.2,1.2,0,0,1-.458.089,1.226,1.226,0,0,1-.873-.367l-2.844-2.912a.762.762,0,0,0-.536-.231.806.806,0,0,0-.54.216.762.762,0,0,0-.015,1.076l4.474,4.561a1.216,1.216,0,0,1,.349.853V27.1a8.931,8.931,0,0,0,1.383,3.4A1.22,1.22,0,0,1,22.69,32.2,1.245,1.245,0,0,1,22.007,32.4Z" transform="translate(8.854 6.6)" fill="#00265f"/>
    <path id="Trazado_43" data-name="Trazado 43" d="M9.47,19.688a1.219,1.219,0,0,1,0-2.438h6.465a1.219,1.219,0,0,1,0,2.438Z" transform="translate(5.158 10.786)" fill="#41e0e0"/>
    <path id="Trazado_44" data-name="Trazado 44" d="M9.47,15.938a1.219,1.219,0,1,1,0-2.438h2.438a1.219,1.219,0,1,1,0,2.438Z" transform="translate(5.158 8.441)" fill="#41e0e0"/>
    <path id="Trazado_45" data-name="Trazado 45" d="M19.034,17.065A8.533,8.533,0,1,1,19.034,0a1.219,1.219,0,0,1,0,2.438,6.095,6.095,0,1,0,6.095,6.095,1.219,1.219,0,1,1,2.438,0A8.542,8.542,0,0,1,19.034,17.065Z" transform="translate(6.565)" fill="#00265f"/>
    <path id="Trazado_46" data-name="Trazado 46" d="M17.275,10.5a2.125,2.125,0,0,1-1.505-.621l-2.1-2.1a1.222,1.222,0,0,1,0-1.724,1.222,1.222,0,0,1,1.726,0l1.882,1.884,6.452-6.451A1.218,1.218,0,1,1,25.452,3.2L18.789,9.868a2.114,2.114,0,0,1-1.507.627h-.007Z" transform="translate(8.324 0.703)" fill="#41e0e0"/>
  </g>
</svg>
