<svg xmlns="http://www.w3.org/2000/svg" width="33" height="33" viewBox="0 0 33 33">
  <g id="light-bulb-shine" transform="translate(-0.75 -0.75)">
    <path id="Trazado_47" data-name="Trazado 47" d="M10.85,23.95a1.1,1.1,0,1,1,0-2.2h4.4a1.1,1.1,0,1,1,0,2.2Z" transform="translate(4.2 9.8)" fill="#00265f"/>
    <path id="Trazado_48" data-name="Trazado 48" d="M12.95,27.26a1.1,1.1,0,0,1-1.1-1.1v-1.7a9.9,9.9,0,1,1,6.6,0v1.7a1.1,1.1,0,0,1-1.1,1.1Zm3.3-2.2V23.649a1.1,1.1,0,0,1,.827-1.066,7.7,7.7,0,0,0-1.9-15.155l-.031-.55v.55a7.7,7.7,0,0,0-1.921,15.155,1.1,1.1,0,0,1,.824,1.065v1.411h2.2Z" transform="translate(2.1 2.09)" fill="#00265f"/>
    <path id="Trazado_49" data-name="Trazado 49" d="M12.35,5.15a1.1,1.1,0,0,1-1.1-1.1V1.85a1.1,1.1,0,0,1,2.2,0v2.2A1.1,1.1,0,0,1,12.35,5.15Z" transform="translate(4.9)" fill="#41e0e0"/>
    <path id="Trazado_50" data-name="Trazado 50" d="M21.35,11.95a1.1,1.1,0,0,1,0-2.2h2.2a1.1,1.1,0,0,1,0,2.2Z" transform="translate(9.1 4.2)" fill="#41e0e0"/>
    <path id="Trazado_51" data-name="Trazado 51" d="M1.85,13.45a1.1,1.1,0,0,1,0-2.2h2.2a1.1,1.1,0,0,1,0,2.2Z" transform="translate(0 4.9)" fill="#41e0e0"/>
    <path id="Trazado_52" data-name="Trazado 52" d="M20.27,20.621a1.089,1.089,0,0,1-.777-.323l-1.556-1.556a1.1,1.1,0,0,1,0-1.556,1.1,1.1,0,0,1,1.555,0l1.556,1.556a1.1,1.1,0,0,1,0,1.556A1.089,1.089,0,0,1,20.27,20.621Z" transform="translate(7.87 7.519)" fill="#41e0e0"/>
    <path id="Trazado_53" data-name="Trazado 53" d="M6.481,6.831A1.089,1.089,0,0,1,5.7,6.508L4.148,4.952A1.1,1.1,0,1,1,5.7,3.4L7.258,4.954a1.1,1.1,0,0,1-.777,1.877Z" transform="translate(1.435 1.085)" fill="#41e0e0"/>
    <path id="Trazado_54" data-name="Trazado 54" d="M18.714,6.831a1.1,1.1,0,0,1-.777-1.877L19.493,3.4a1.1,1.1,0,1,1,1.555,1.555L19.491,6.508A1.089,1.089,0,0,1,18.714,6.831Z" transform="translate(7.87 1.085)" fill="#41e0e0"/>
    <path id="Trazado_55" data-name="Trazado 55" d="M4.925,20.621a1.089,1.089,0,0,1-.777-.323,1.1,1.1,0,0,1,0-1.556L5.7,17.186a1.1,1.1,0,0,1,1.555,0,1.1,1.1,0,0,1,0,1.556L5.7,20.3A1.089,1.089,0,0,1,4.925,20.621Z" transform="translate(1.435 7.519)" fill="#41e0e0"/>
  </g>
</svg>
