<?xml version="1.0" encoding="utf-8"?>
<!-- Generator: Adobe Illustrator 24.2.1, SVG Export Plug-In . SVG Version: 6.00 Build 0)  -->
<svg version="1.1" id="Capa_1" xmlns="http://www.w3.org/2000/svg" xmlns:xlink="http://www.w3.org/1999/xlink" x="0px" y="0px"
	 viewBox="0 0 38 38" style="enable-background:new 0 0 38 38;" xml:space="preserve">
<style type="text/css">
	.st0{fill:#202E57;}
	.st1{fill:#FFFFFF;}
</style>
<g>
	<circle id="Elipse_1" class="st0" cx="19" cy="19" r="19"/>
	<path id="telefono" class="st1" d="M14.7,16.7c1.4,2.5,3.5,4.6,6,6c0.4,0.1,0.7-0.1,0.9-0.4l0.8-0.8c0,0,0.5-0.8,1.8-0.2l3.6,2.1
		c0,0,1.3,0.5,0,1.8l-2.4,2.4c0,0-0.5,1-3.2,0.4c-6.1-2.1-10.9-6.8-13-12.8c-0.5-1.1-0.4-2.4,0.4-3.4l2.6-2.7c0.4-0.4,1-0.4,1.4,0
		c0.1,0.1,0.2,0.2,0.2,0.4l1.9,3.7c0.4,0.6,0.3,1.3-0.2,1.8l-0.8,0.8C14.6,16.1,14.5,16.4,14.7,16.7C14.7,16.7,14.7,16.7,14.7,16.7z
		"/>
</g>
</svg>
