<svg id="monitor-approve" xmlns="http://www.w3.org/2000/svg" width="40" height="40" viewBox="0 0 40 40">
  <path id="Trazado_33" data-name="Trazado 33" d="M10,35a1.25,1.25,0,0,1,0-2.5h2.692l.833-5H6.25A6.257,6.257,0,0,1,0,21.25v-15A6.257,6.257,0,0,1,6.25,0h27.5A6.257,6.257,0,0,1,40,6.25v12.5a1.25,1.25,0,0,1-2.5,0V6.25A3.754,3.754,0,0,0,33.75,2.5H6.25A3.754,3.754,0,0,0,2.5,6.25V20H16.593a1.25,1.25,0,0,1,0,2.5H2.72A3.77,3.77,0,0,0,6.25,25H15c.028,0,.092,0,.12.008h.005a.641.641,0,0,1,.077.008c.017,0,.037.007.055.012s.063.017.1.028.073.022.1.033a1.212,1.212,0,0,1,.112.053c.048.025.082.043.113.063s.067.048.083.062a1.06,1.06,0,0,1,.1.087c.017.017.06.063.073.082a.987.987,0,0,1,.08.1.793.793,0,0,1,.06.1,1.072,1.072,0,0,1,.058.115.819.819,0,0,1,.037.1,1.136,1.136,0,0,1,.038.13c.005.023.015.087.017.11s.008.07.01.1,0,.038,0,.057a.92.92,0,0,1-.008.118.425.425,0,0,1-.008.087l-1.25,7.5a.6.6,0,0,1-.013.058,1.3,1.3,0,0,1-.122.328c-.005.01-.027.048-.033.058a1.261,1.261,0,0,1-.24.285l-.045.037a1.319,1.319,0,0,1-.328.192l-.077.025a1.21,1.21,0,0,1-.368.058H10Z" fill="#00265f"/>
  <path id="Trazado_34" data-name="Trazado 34" d="M21.75,33A11.25,11.25,0,1,1,33,21.75,11.263,11.263,0,0,1,21.75,33Zm0-20a8.75,8.75,0,1,0,8.75,8.75A8.76,8.76,0,0,0,21.75,13Z" transform="translate(7 7)" fill="#00265f"/>
  <path id="Trazado_35" data-name="Trazado 35" d="M18.269,24.21a2.507,2.507,0,0,1-1.767-.732L14,20.98a1.253,1.253,0,0,1,0-1.768,1.247,1.247,0,0,1,1.767,0l2.5,2.5,4.843-6.457a1.25,1.25,0,1,1,2,1.5L20.272,23.21A2.519,2.519,0,0,1,18.269,24.21Z" transform="translate(9.093 9.837)" fill="#41e0e0"/>
</svg>
